<svg width="95" height="29" viewBox="0 0 95 29" fill="none" xmlns="http://www.w3.org/2000/svg">
<path d="M3.5072 9.7637L4.02845 3.47541C4.07135 2.80936 3.59729 2.22269 2.93661 2.12509L2.23946 1.9138C1.79006 1.8237 1.47259 1.4215 1.48868 0.964599C1.50691 0.440128 2.12791 -0.0296413 2.65238 0.00146226L7.28575 0.202026L11.9813 0.542019C12.4071 0.58063 12.9284 1.0311 12.9595 1.45797C12.9884 1.85802 12.7417 2.2259 12.3599 2.35139L10.8938 2.77504C10.5173 2.90911 10.2588 3.25661 10.2384 3.65667L9.94242 9.43228L13.2255 9.0526C13.3231 9.04188 13.4196 9.02579 13.515 9.00756L17.3451 8.23319L17.3247 4.13502C17.3247 3.61806 16.9815 3.1633 16.4838 3.0228L15.2751 2.61631C14.8911 2.44792 14.6798 2.03178 14.771 1.62314C14.8697 1.18125 15.289 0.886303 15.7384 0.94422L25.4384 1.87518C25.7473 1.91701 25.9908 2.15941 26.0348 2.4683L26.0434 2.52514C26.0905 2.8587 25.8932 3.17939 25.5736 3.28557L24.0967 3.78108C23.7245 3.9055 23.4746 4.25407 23.4757 4.64555L23.5207 16.7406C23.5218 17.1063 23.7921 17.4152 24.1535 17.4656L25.6165 17.6704C26.023 17.8227 26.2546 18.2518 26.1581 18.6754C26.0766 19.0358 25.7763 19.305 25.4095 19.3457L15.1399 20.5406C14.7141 20.5942 14.3152 20.325 14.2047 19.9099L14.1993 19.8884C14.0985 19.5088 14.268 19.1087 14.6112 18.9178L16.4259 17.9C16.7949 17.7702 17.0458 17.4259 17.0576 17.0344L17.2636 10.2721L13.2501 11.2073C13.1868 11.2223 13.1225 11.232 13.0581 11.2384L9.91132 11.5377L9.6153 18.0051C9.60779 18.3032 9.81264 18.5649 10.1044 18.6282L11.711 18.9811C12.0264 19.1709 12.2226 19.5088 12.2291 19.8767C12.2387 20.4279 11.8269 20.8956 11.2788 20.9556L5.15783 21.641L1.109 21.7911C0.496584 21.7911 0 21.2945 0 20.6821C0 20.251 0.249901 19.8595 0.640304 19.6772L2.39498 18.8824C2.67598 18.7516 2.86689 18.4813 2.89692 18.1735L3.51792 11.8144H2.40892C1.85227 11.8144 1.40073 11.3629 1.40073 10.8062C1.40073 10.1573 2.34564 9.69613 2.99131 9.75511L3.5072 9.7637Z" fill="#FF9900"/>
<path d="M43.264 17.8742C43.1943 17.7831 43.0956 17.7144 42.9787 17.6833L42.7342 17.619C42.3824 17.5257 42.0735 17.3122 41.8611 17.0173L35.5718 8.09805C35.4602 7.93931 35.2832 7.83849 35.0913 7.82241C35.058 7.81919 35.0258 7.81812 34.9926 7.81812C34.8596 7.81812 34.7266 7.84064 34.6011 7.88462L33.1972 8.37584C33.0363 8.43268 32.8711 8.4788 32.7038 8.51419L31.4071 8.78769C31.2323 8.82416 31.1111 8.98504 31.125 9.16415C31.1357 9.31109 31.2355 9.43658 31.3771 9.47948L32.086 9.69399C32.2222 9.73581 32.3391 9.82269 32.4174 9.94067C32.47 10.02 32.4968 10.1112 32.4968 10.2024C32.4968 10.2871 32.4743 10.3718 32.4281 10.448L30.031 14.4003C29.942 14.5472 29.7801 14.6362 29.6084 14.6319L28.8877 14.6148C28.641 14.6084 28.4254 14.7767 28.3707 15.017C28.3622 15.0567 28.3579 15.0953 28.3579 15.1339C28.3579 15.3623 28.5091 15.5704 28.7375 15.6358C28.8362 15.6637 28.9338 15.6916 29.0078 15.712C29.0765 15.7313 29.1076 15.8117 29.07 15.8729L28.1262 17.398C28.0919 17.4527 28.0479 17.4999 27.9953 17.5364L26.6214 18.5102C26.5067 18.5896 26.4573 18.7344 26.4992 18.8674C26.541 19.0004 26.6654 19.0894 26.8027 19.0894H26.8123L31.8758 18.8202C32.1214 18.7955 32.3037 18.5821 32.2909 18.3354C32.2844 18.2174 32.234 18.1102 32.1546 18.0319C32.0764 17.9536 31.9691 17.9043 31.8511 17.8978L31.0274 17.6318C30.5812 17.6093 30.3528 17.0848 30.6413 16.7438L31.0242 16.2912C31.0596 16.2493 31.1132 16.2257 31.169 16.229L33.7463 16.377C33.8911 16.3845 34.0369 16.3845 34.1817 16.3748L35.2682 16.3072C35.4892 16.2933 35.7058 16.2461 35.9128 16.1667L36.6357 15.89C36.6743 15.875 36.7172 15.8911 36.7365 15.9276L37.1966 16.7963C37.276 16.9454 37.2149 17.1288 37.0636 17.2017L36.0662 17.6415C35.8302 17.7552 35.7047 18.0179 35.7659 18.2732C35.7959 18.3987 35.8667 18.506 35.9632 18.581C36.0587 18.6572 36.1799 18.7012 36.3086 18.7012L42.8382 18.7344C43.1342 18.7355 43.3745 18.4952 43.3745 18.1992C43.3745 18.078 43.3337 17.9654 43.264 17.8742ZM35.1685 15.0781C34.2332 15.2412 33.2797 15.2562 32.3413 15.1253L31.7653 15.0449L33.8814 11.8326L35.9825 14.9376L35.1685 15.0781Z" fill="#FF9900"/>
<path d="M56.6954 15.8214C55.7109 14.9784 54.4646 14.3402 53.1175 13.6195L52.9501 13.6087L53.9197 13.2023C55.3784 12.415 56.0187 10.6625 55.4116 9.12018C54.8946 7.80739 52.7067 6.72627 51.144 6.72627C50.9606 6.72627 50.7858 6.74129 50.6238 6.77239L48.601 7.18639C48.2063 7.26683 47.8073 7.3226 47.4051 7.35263L43.7456 7.7055C43.5451 7.72159 43.3735 7.85673 43.3134 8.04871C43.2973 8.09912 43.2898 8.14953 43.2898 8.19887C43.2898 8.42732 43.4507 8.63646 43.6888 8.68365L44.2583 8.78018C44.7184 8.85848 45.0627 9.24245 45.0906 9.70793L45.1506 11.0336C45.1506 11.07 45.1528 11.1065 45.156 11.143L45.2697 12.7979C45.2804 12.9009 45.1989 12.991 45.0959 12.9899L44.3806 12.9856C44.0309 12.9835 43.7563 13.287 43.7939 13.6356C43.795 13.6441 43.796 13.6495 43.796 13.6495C43.8271 13.9391 44.0577 14.1643 44.3452 14.1858C44.6648 14.2115 45.0563 14.2426 45.2504 14.2576C45.3201 14.2641 45.3748 14.3209 45.377 14.3906L45.4746 16.8564C45.4874 17.1749 45.2826 17.4613 44.9769 17.5525L44.1939 17.7133C43.9848 17.7756 43.8379 17.9632 43.8282 18.181C43.8282 18.1896 43.8271 18.1981 43.8271 18.2067C43.8271 18.4738 44.0352 18.6979 44.3044 18.7162L50.5605 19.172C50.8619 19.1945 51.1182 18.9564 51.1182 18.654C51.1182 18.5489 51.0861 18.4491 51.0303 18.3654C50.9745 18.2818 50.8952 18.2153 50.7976 18.1745L49.6746 17.7262C49.4869 17.6511 49.3582 17.4763 49.3432 17.2747L49.0997 14.3295L49.1383 14.322C49.592 14.233 50.0618 14.2383 50.5069 14.3584C52.0749 14.7832 53.6923 15.8986 53.6709 17.6039C53.4564 17.812 53.2161 17.9944 52.9566 18.1445L52.6895 18.3204C52.5351 18.4094 52.43 18.5649 52.4053 18.7419C52.401 18.7698 52.3989 18.7977 52.3989 18.8256C52.3989 19.113 52.6134 19.364 52.9072 19.4015L57.7572 19.9453C58.2077 19.9957 58.6228 19.6954 58.7161 19.2514C58.4072 17.7123 57.6811 16.6644 56.6954 15.8214ZM49.3904 13.0113L49.1083 13.0189C49.0568 13.021 49.0139 12.9824 49.0107 12.932L48.7308 9.15343C48.6847 8.53564 49.1244 8.1077 49.7443 8.09161L49.8098 8.09054H49.8387C50.9724 8.09054 51.662 9.10194 51.7049 10.2421C51.7232 10.3632 51.7317 10.4834 51.7317 10.6024C51.7317 11.883 50.7128 12.9706 49.3904 13.0113Z" fill="#FF9900"/>
<path d="M68.6939 13.9798L68.9406 13.8608C69.0339 13.8168 69.125 13.7696 69.2141 13.7171C71.6863 12.2531 71.5704 10.0168 70.6084 8.20316C69.7031 6.49675 68.0021 5.69449 65.9471 5.69449H65.857L65.4194 5.79424L63.905 6.17284C63.5157 6.27044 63.1167 6.33265 62.7155 6.35947L59.3349 6.5847C58.967 6.60937 58.6785 6.90968 58.6699 7.27863C58.6614 7.63149 59.0475 7.83528 59.3961 7.89427L59.7339 7.99937C60.0739 8.10448 60.3206 8.39836 60.3667 8.75122L60.9266 13.1014C60.9341 13.1583 60.8912 13.2098 60.8343 13.2119L60.2498 13.2376C59.8637 13.2548 59.5655 13.583 59.5837 13.9691C59.5913 14.1407 59.662 14.2962 59.7736 14.4142C59.8841 14.5322 60.0353 14.6116 60.2069 14.6298L60.9823 14.7124C61.0306 14.7177 61.0681 14.7553 61.0735 14.8025L61.465 18.2968C61.4832 18.4609 61.2537 18.7848 61.0949 18.8288L60.5351 18.8481C60.2412 18.9296 60.0288 19.187 60.0053 19.4905C60.0042 19.5088 60.0031 19.527 60.0031 19.5452C60.0031 19.912 60.2777 20.2252 60.6477 20.2671L66.5713 20.9331C67.0089 20.9824 67.3661 20.5877 67.2728 20.1577C67.2513 20.0601 67.2073 19.97 67.1451 19.896C67.084 19.8209 67.0036 19.7619 66.9113 19.7233L66.1605 19.3232C65.7465 19.1505 65.3872 18.8921 65.3358 18.4459L64.9368 14.9752C64.9303 14.9226 64.9732 14.8765 65.0258 14.8786L65.6682 14.899C67.9216 15.2465 69.5583 16.821 69.775 19.1076L68.9491 19.838C68.7872 19.9818 68.6939 20.1888 68.6939 20.4065C68.6939 20.5995 68.7657 20.7776 68.8869 20.9127C69.0071 21.0468 69.1754 21.139 69.3664 21.1616L74.1467 21.7118C74.5381 21.7557 74.8856 21.4597 74.9017 21.0661L74.9403 20.991C74.5317 17.6865 71.3806 15.0921 68.6939 13.9798ZM67.2417 11.409C67.0647 12.4987 66.508 13.0607 65.4966 13.2098L64.7662 13.3224C64.7351 13.3267 64.7062 13.3052 64.7019 13.273L64.097 8.48845C64.0112 7.80739 64.5335 7.20141 65.2199 7.18639H65.2371C66.0908 7.18639 67.0154 8.62788 67.1569 9.46983L67.2535 10.2463C67.3028 10.6325 67.3039 11.025 67.2417 11.409Z" fill="#FF9900"/>
<path d="M74.7022 12.6563C74.6926 12.9395 74.8878 13.1883 75.1645 13.2451C75.2246 13.258 75.2879 13.2709 75.3522 13.2838C75.8424 13.3856 76.2167 13.7825 76.2885 14.278L77.1187 19.9882C77.1594 20.2713 77.0114 20.5481 76.7529 20.6714L76.1534 20.8645C75.941 20.9653 75.8113 21.1873 75.8284 21.4222C75.8477 21.6978 76.0612 21.9198 76.3357 21.9509L81.3992 22.5548C81.7156 22.5923 81.9891 22.3349 81.9698 22.0174L81.9623 21.8834C81.9515 21.6946 81.8368 21.5273 81.6652 21.449L80.9348 21.1144C80.6398 20.9792 80.4317 20.7046 80.3813 20.384L78.9345 11.2878C78.854 10.7837 78.2792 10.5327 77.8555 10.8159L76.6832 11.5977C76.6489 11.6203 76.6124 11.6385 76.5738 11.6503L75.1645 12.0407C74.9318 12.1158 74.7108 12.4129 74.7022 12.6563Z" fill="#FF9900"/>
<path d="M74.8706 7.36872C74.8706 6.34552 75.7361 5.27405 76.739 5.51538C77.7665 5.76206 78.4143 6.36483 78.6073 7.36872C78.8004 8.37369 77.7707 9.22206 76.739 9.22206C75.7072 9.22206 74.8706 8.39299 74.8706 7.36872Z" fill="#FF9900"/>
<path d="M91.0874 8.8027L90.8761 4.96195C90.8568 4.60586 90.5468 4.33558 90.1907 4.36454L89.6974 4.40423L89.4872 4.48145C89.2394 4.57261 88.9734 4.6005 88.7117 4.56403L86.2985 4.21975C84.1052 4.23584 82.3537 6.04306 82.4063 8.23533L82.4073 8.26643C82.4717 10.9982 84.4151 12.0965 87.2284 13.3631L88.2452 13.8887L89.1493 14.3123C90.4996 15.3709 91.3823 16.1035 91.6751 17.5063C91.54 19.6643 90.9941 20.5609 89.1954 20.8344L89.0163 20.8387L88.3846 20.813C86.5967 20.5298 85.182 19.3511 85.0544 17.5846C84.9943 16.7556 85.625 16.0488 86.4562 16.0155L86.5613 16.0209C86.9678 16.0423 87.3078 16.3148 87.4139 16.7255C87.4751 16.9615 87.3936 17.2114 87.2209 17.3819L87.1651 17.4366C87.0589 17.6329 87.1169 17.8774 87.3003 18.004L87.6692 18.2593C87.7421 18.3097 87.829 18.3365 87.918 18.3365L88.4307 18.3601C89.2373 18.3022 89.7789 17.5793 89.6738 16.777C89.4657 15.1092 88.3074 14.1976 86.5924 13.7653H85.5274C83.526 13.7653 82.0137 15.3977 82.166 17.3927L82.1918 17.7294C82.8718 21.168 85.6099 22.8154 89.1311 23.2691L89.2491 23.2766C91.8703 23.5372 94.7115 22.2191 95 18.1005C94.8616 14.9526 93.27 12.7057 90.5104 11.4283L88.6163 10.522L86.9871 9.60282C85.4662 8.73835 85.5349 8.20423 85.3965 7.1392C85.3986 6.39378 85.9885 5.78351 86.734 5.75455C88.257 5.69663 88.8233 6.6705 89.3349 8.23533L89.5204 8.69008L89.6942 9.04617C89.81 9.37007 90.1875 9.59638 90.5415 9.57386L90.5715 9.57171C90.9683 9.5449 91.1067 9.19847 91.0874 8.8027Z" fill="#FF9900"/>
<path d="M0.636003 24.1743L3.81608 23.534C45.0015 18.5917 46.7315 21.5573 72.4306 24.9347L76.0139 25.2232L94.1141 24.9455C94.2009 24.9444 94.216 25.0688 94.1312 25.0892L78.3671 28.7476C78.2008 28.7862 78.0282 28.7841 77.863 28.7412C67.0561 24.4821 52.5479 23.3281 41.1093 23.3077L21.0056 23.2498C20.6109 23.2476 20.2173 23.2562 19.8226 23.2755L0.641365 24.2279C0.608117 24.229 0.602755 24.1807 0.636003 24.1743Z" fill="#FF9900"/>
</svg>
