<svg width="19" height="18" viewBox="0 0 19 18" fill="none" xmlns="http://www.w3.org/2000/svg">
<path d="M16.1225 6.00751L11.21 2.07751C10.25 1.31251 8.74997 1.30501 7.79747 2.07001L2.88497 6.00751C2.17997 6.57001 1.75247 7.69501 1.90247 8.58001L2.84747 14.235C3.06497 15.5025 4.24247 16.5 5.52497 16.5H13.475C14.7425 16.5 15.9425 15.48 16.16 14.2275L17.105 8.57251C17.24 7.69501 16.8125 6.57001 16.1225 6.00751ZM10.0625 13.5C10.0625 13.8075 9.80747 14.0625 9.49997 14.0625C9.19247 14.0625 8.93747 13.8075 8.93747 13.5V11.25C8.93747 10.9425 9.19247 10.6875 9.49997 10.6875C9.80747 10.6875 10.0625 10.9425 10.0625 11.25V13.5Z" fill="currentColor"/>
</svg>
