<svg xmlns="http://www.w3.org/2000/svg" version="1.1" xmlns:xlink="http://www.w3.org/1999/xlink" width="512" height="512" x="0" y="0" viewBox="0 0 512 512" style="enable-background:new 0 0 512 512" xml:space="preserve" class=""><g><path d="M77.936 15h356.128v482H77.936z" style="fill-rule:evenodd;clip-rule:evenodd;stroke-width:29.9999;stroke-linecap:round;stroke-linejoin:round;stroke-miterlimit:22.9256;" fill-rule="evenodd" clip-rule="evenodd" fill="none" stroke="#000000" stroke-width="29.9999" stroke-linecap="round" stroke-linejoin="round" stroke-miterlimit="22.9256" data-original="#000000" class=""></path><path d="M231.5 75h48.999c28.05 0 51 22.955 51 51v36.023c0 17.044-13.955 31-31 31H211.5c-17.045 0-31-13.95-31-31V126c0-28.05 22.95-51 51-51zM164 134.011h184M286.5 252.999h87.876M286.5 312.999h87.876M286.5 372.999h87.876M286.5 432.999h87.876M138.123 252.999H226M138.123 312.999H226M138.123 372.999H226M138.123 432.999H226" style="fill-rule:evenodd;clip-rule:evenodd;stroke-width:29.9999;stroke-linecap:round;stroke-linejoin:round;stroke-miterlimit:22.9256;" fill-rule="evenodd" clip-rule="evenodd" fill="none" stroke="#000000" stroke-width="29.9999" stroke-linecap="round" stroke-linejoin="round" stroke-miterlimit="22.9256" data-original="#000000" class=""></path></g></svg>
