<svg width="17" height="16" viewBox="0 0 17 16" fill="none" xmlns="http://www.w3.org/2000/svg">
<path d="M13.8368 14.6668H3.17008C2.8019 14.6668 2.50342 14.3684 2.50342 14.0002V2.00016C2.50342 1.63198 2.8019 1.3335 3.17008 1.3335H13.8368C14.205 1.3335 14.5034 1.63198 14.5034 2.00016V14.0002C14.5034 14.3684 14.205 14.6668 13.8368 14.6668ZM13.1701 13.3335V2.66683H3.83675V13.3335H13.1701ZM6.50342 4.00016V5.3335C6.50342 6.43806 7.39883 7.3335 8.50343 7.3335C9.60796 7.3335 10.5034 6.43806 10.5034 5.3335V4.00016H11.8368V5.3335C11.8368 7.17443 10.3444 8.66683 8.50343 8.66683C6.66247 8.66683 5.17008 7.17443 5.17008 5.3335V4.00016H6.50342Z" fill="currentColor"/>
</svg>
