<svg xmlns="http://www.w3.org/2000/svg" version="1.1" xmlns:xlink="http://www.w3.org/1999/xlink" width="512" height="512" x="0" y="0" viewBox="0 0 512 512" style="enable-background:new 0 0 512 512" xml:space="preserve" class=""><g><path d="M434.063 0H77.937c-8.284 0-15 6.716-15 15v482c0 8.284 6.716 15 15 15h356.127c8.284 0 15-6.716 15-15V15c-.001-8.284-6.716-15-15.001-15zM164 119.012h1.873C169.375 85.893 197.468 60 231.5 60h48.999c34.032 0 62.125 25.893 65.627 59.012H348c8.284 0 15 6.716 15 15s-6.716 15-15 15h-1.501v13.011c0 25.364-20.636 46-46 46H211.5c-25.364 0-46-20.636-46-46v-13.011H164c-8.284 0-15-6.716-15-15s6.716-15 15-15zm62 328.987h-87.877c-8.284 0-15-6.716-15-15s6.716-15 15-15H226c8.284 0 15 6.716 15 15s-6.716 15-15 15zm0-60h-87.877c-8.284 0-15-6.716-15-15s6.716-15 15-15H226c8.284 0 15 6.716 15 15s-6.716 15-15 15zm0-60h-87.877c-8.284 0-15-6.716-15-15s6.716-15 15-15H226c8.284 0 15 6.716 15 15s-6.716 15-15 15zm0-60h-87.877c-8.284 0-15-6.716-15-15s6.716-15 15-15H226c8.284 0 15 6.716 15 15s-6.716 15-15 15zm148.376 180H286.5c-8.284 0-15-6.716-15-15s6.716-15 15-15h87.876c8.284 0 15 6.716 15 15s-6.716 15-15 15zm0-60H286.5c-8.284 0-15-6.716-15-15s6.716-15 15-15h87.876c8.284 0 15 6.716 15 15s-6.716 15-15 15zm0-60H286.5c-8.284 0-15-6.716-15-15s6.716-15 15-15h87.876c8.284 0 15 6.716 15 15s-6.716 15-15 15zm0-60H286.5c-8.284 0-15-6.716-15-15s6.716-15 15-15h87.876c8.284 0 15 6.716 15 15s-6.716 15-15 15z" fill="#ff9000" opacity="1" data-original="#000000" class=""></path><path d="M280.499 90H231.5c-17.46 0-32.051 12.495-35.313 29.012h119.626C312.55 102.495 297.959 90 280.499 90zM211.5 178.022h88.999c8.822 0 16-7.178 16-16v-13.011H195.5v13.011c0 8.823 7.178 16 16 16z" fill="#ff9000" opacity="1" data-original="#000000" class=""></path></g></svg>
