<svg width="34" height="35" viewBox="0 0 34 35" fill="none" xmlns="http://www.w3.org/2000/svg">
<rect y="0.5" width="34" height="34" rx="4" fill="#FF9900" fill-opacity="0.1"/>
<g clip-path="url(#clip0_26_1584)">
<path d="M17 22.3637L20.1823 19.1822C20.8115 18.5529 21.24 17.7511 21.4136 16.8782C21.5872 16.0053 21.498 15.1005 21.1574 14.2783C20.8168 13.4561 20.24 12.7533 19.5 12.2589C18.76 11.7644 17.89 11.5005 17 11.5005C16.11 11.5005 15.24 11.7644 14.5 12.2589C13.76 12.7533 13.1832 13.4561 12.8426 14.2783C12.502 15.1005 12.4128 16.0053 12.5864 16.8782C12.76 17.7511 13.1885 18.5529 13.8178 19.1822L17 22.3637ZM21.2428 20.2427L17 24.4855L12.7573 20.2427C11.9182 19.4036 11.3468 18.3345 11.1153 17.1706C10.8838 16.0068 11.0026 14.8004 11.4568 13.704C11.9109 12.6077 12.6799 11.6707 13.6666 11.0114C14.6533 10.3521 15.8133 10.0002 17 10.0002C18.1867 10.0002 19.3467 10.3521 20.3334 11.0114C21.3201 11.6707 22.0891 12.6077 22.5433 13.704C22.9974 14.8004 23.1162 16.0068 22.8847 17.1706C22.6533 18.3345 22.0818 19.4036 21.2428 20.2427ZM11.75 25H22.25V26.5H11.75V25Z" fill="#FF9900"/>
</g>
<defs>
<clipPath id="clip0_26_1584">
<rect width="18" height="18" fill="white" transform="translate(8 8.5)"/>
</clipPath>
</defs>
</svg>
